<svg id="Layer_1" data-name="Layer 1" xmlns="http://www.w3.org/2000/svg" viewBox="0 0 593.55 645.16"><defs><style>.cls-1{fill:none;}.cls-2{fill:#fff;}</style></defs><title>Laaud Logo</title><polygon class="cls-1" points="283.87 283.87 309.68 283.87 335.49 283.87 361.29 283.87 387.1 283.87 412.9 283.87 412.9 258.06 412.9 232.26 387.1 232.26 387.1 206.45 361.29 206.45 335.49 206.45 309.68 206.45 309.68 232.26 283.87 232.26 283.87 258.06 283.87 283.87"/><rect class="cls-2" x="567.74" y="412.9" width="25.81" height="25.81"/><rect class="cls-2" x="567.74" y="387.1" width="25.81" height="25.8"/><rect class="cls-2" x="567.74" y="361.29" width="25.81" height="25.81"/><rect class="cls-2" x="567.74" y="232.26" width="25.81" height="25.8"/><rect class="cls-2" x="567.74" y="206.45" width="25.81" height="25.81"/><rect class="cls-2" x="567.74" y="180.65" width="25.81" height="25.8"/><rect class="cls-2" x="567.74" y="154.84" width="25.81" height="25.81"/><rect class="cls-2" x="541.94" y="438.71" width="25.8" height="25.81"/><rect class="cls-2" x="541.94" y="335.48" width="25.8" height="25.81"/><rect class="cls-2" x="541.94" y="258.06" width="25.8" height="25.81"/><rect class="cls-2" x="516.13" y="438.71" width="25.81" height="25.81"/><rect class="cls-2" x="516.13" y="335.48" width="25.81" height="25.81"/><rect class="cls-2" x="516.13" y="258.06" width="25.81" height="25.81"/><rect class="cls-2" x="490.32" y="438.71" width="25.81" height="25.81"/><rect class="cls-2" x="490.32" y="412.9" width="25.81" height="25.81"/><rect class="cls-2" x="490.32" y="387.1" width="25.81" height="25.8"/><rect class="cls-2" x="490.32" y="361.29" width="25.81" height="25.81"/><rect class="cls-2" x="490.32" y="335.48" width="25.81" height="25.81"/><rect class="cls-2" x="490.32" y="232.26" width="25.81" height="25.8"/><rect class="cls-2" x="490.32" y="206.45" width="25.81" height="25.81"/><rect class="cls-2" x="490.32" y="180.65" width="25.81" height="25.8"/><rect class="cls-2" x="490.32" y="154.84" width="25.81" height="25.81"/><rect class="cls-2" x="464.52" y="103.23" width="25.8" height="25.8"/><rect class="cls-2" x="464.52" y="25.81" width="25.8" height="25.8"/><rect class="cls-2" x="438.71" y="438.71" width="25.81" height="25.81"/><rect class="cls-2" x="438.71" y="412.9" width="25.81" height="25.81"/><rect class="cls-2" x="438.71" y="387.1" width="25.81" height="25.8"/><rect class="cls-2" x="438.71" y="361.29" width="25.81" height="25.81"/><rect class="cls-2" x="438.71" y="335.48" width="25.81" height="25.81"/><rect class="cls-2" x="438.71" y="309.68" width="25.81" height="25.8"/><rect class="cls-2" x="438.71" y="283.87" width="25.81" height="25.81"/><rect class="cls-2" x="438.71" y="258.06" width="25.81" height="25.81"/><rect class="cls-2" x="438.71" y="232.26" width="25.81" height="25.8"/><rect class="cls-2" x="438.71" y="206.45" width="25.81" height="25.81"/><rect class="cls-2" x="438.71" y="103.23" width="25.81" height="25.8"/><rect class="cls-2" x="438.71" y="51.61" width="25.81" height="25.81"/><rect class="cls-2" x="438.71" width="25.81" height="25.81"/><rect class="cls-2" x="412.9" y="438.71" width="25.81" height="25.81"/><rect class="cls-2" x="412.9" y="412.9" width="25.81" height="25.81"/><rect class="cls-2" x="412.9" y="387.1" width="25.81" height="25.8"/><rect class="cls-2" x="412.9" y="361.29" width="25.81" height="25.81"/><rect class="cls-2" x="412.9" y="335.48" width="25.81" height="25.81"/><rect class="cls-2" x="412.9" y="309.68" width="25.81" height="25.8"/><rect class="cls-2" x="412.9" y="283.87" width="25.81" height="25.81"/><rect class="cls-2" x="412.9" y="258.06" width="25.81" height="25.81"/><rect class="cls-2" x="412.9" y="232.26" width="25.81" height="25.8"/><rect class="cls-2" x="412.9" y="206.45" width="25.81" height="25.81"/><rect class="cls-2" x="412.9" y="180.65" width="25.81" height="25.8"/><rect class="cls-2" x="412.9" y="103.23" width="25.81" height="25.8"/><rect class="cls-2" x="412.9" y="77.42" width="25.81" height="25.81"/><rect class="cls-2" x="412.9" width="25.81" height="25.81"/><rect class="cls-2" x="387.1" y="309.68" width="25.8" height="25.8"/><rect class="cls-2" x="387.1" y="283.87" width="25.8" height="25.81"/><rect class="cls-2" x="387.1" y="206.45" width="25.8" height="25.81"/><rect class="cls-2" x="387.1" y="180.65" width="25.8" height="25.8"/><rect class="cls-2" x="387.1" y="154.84" width="25.8" height="25.81"/><rect class="cls-2" x="387.1" y="103.23" width="25.8" height="25.8"/><rect class="cls-2" x="387.1" y="25.81" width="25.8" height="25.8"/><rect class="cls-2" x="361.29" y="593.55" width="25.81" height="25.8"/><rect class="cls-2" x="361.29" y="567.74" width="25.81" height="25.81"/><rect class="cls-2" x="361.29" y="541.94" width="25.81" height="25.8"/><rect class="cls-2" x="361.29" y="516.13" width="25.81" height="25.81"/><rect class="cls-2" x="361.29" y="309.68" width="25.81" height="25.8"/><rect class="cls-2" x="361.29" y="283.87" width="25.81" height="25.81"/><rect class="cls-2" x="361.29" y="180.65" width="25.81" height="25.8"/><rect class="cls-2" x="361.29" y="154.84" width="25.81" height="25.81"/><rect class="cls-2" x="335.49" y="593.55" width="25.8" height="25.8"/><rect class="cls-2" x="335.49" y="567.74" width="25.8" height="25.81"/><rect class="cls-2" x="335.49" y="541.94" width="25.8" height="25.8"/><rect class="cls-2" x="335.49" y="516.13" width="25.8" height="25.81"/><rect class="cls-2" x="335.49" y="309.68" width="25.8" height="25.8"/><rect class="cls-2" x="335.49" y="283.87" width="25.8" height="25.81"/><rect class="cls-2" x="335.49" y="180.65" width="25.8" height="25.8"/><rect class="cls-2" x="335.49" y="154.84" width="25.8" height="25.81"/><rect class="cls-2" x="309.68" y="619.35" width="25.81" height="25.81"/><rect class="cls-2" x="309.68" y="593.55" width="25.81" height="25.8"/><rect class="cls-2" x="309.68" y="567.74" width="25.81" height="25.81"/><rect class="cls-2" x="309.68" y="541.94" width="25.81" height="25.8"/><rect class="cls-2" x="309.68" y="516.13" width="25.81" height="25.81"/><rect class="cls-2" x="309.68" y="490.32" width="25.81" height="25.81"/><rect class="cls-2" x="309.68" y="309.68" width="25.81" height="25.8"/><rect class="cls-2" x="309.68" y="283.87" width="25.81" height="25.81"/><rect class="cls-2" x="309.68" y="180.65" width="25.81" height="25.8"/><rect class="cls-2" x="309.68" y="154.84" width="25.81" height="25.81"/><rect class="cls-2" x="283.87" y="619.35" width="25.81" height="25.81"/><rect class="cls-2" x="283.87" y="593.55" width="25.81" height="25.8"/><rect class="cls-2" x="283.87" y="567.74" width="25.81" height="25.81"/><rect class="cls-2" x="283.87" y="541.94" width="25.81" height="25.8"/><rect class="cls-2" x="283.87" y="516.13" width="25.81" height="25.81"/><rect class="cls-2" x="283.87" y="490.32" width="25.81" height="25.81"/><rect class="cls-2" x="283.87" y="309.68" width="25.81" height="25.8"/><rect class="cls-2" x="283.87" y="283.87" width="25.81" height="25.81"/><rect class="cls-2" x="283.87" y="206.45" width="25.81" height="25.81"/><rect class="cls-2" x="283.87" y="180.65" width="25.81" height="25.8"/><rect class="cls-2" x="283.87" y="154.84" width="25.81" height="25.81"/><rect class="cls-2" x="258.07" y="619.35" width="25.8" height="25.81"/><rect class="cls-2" x="258.07" y="593.55" width="25.8" height="25.8"/><rect class="cls-2" x="258.07" y="567.74" width="25.8" height="25.81"/><rect class="cls-2" x="258.07" y="541.94" width="25.8" height="25.8"/><rect class="cls-2" x="258.07" y="516.13" width="25.8" height="25.81"/><rect class="cls-2" x="258.07" y="490.32" width="25.8" height="25.81"/><rect class="cls-2" x="258.07" y="438.71" width="25.8" height="25.81"/><rect class="cls-2" x="258.07" y="412.9" width="25.8" height="25.81"/><rect class="cls-2" x="258.07" y="387.1" width="25.8" height="25.8"/><rect class="cls-2" x="258.07" y="361.29" width="25.8" height="25.81"/><rect class="cls-2" x="258.07" y="335.48" width="25.8" height="25.81"/><rect class="cls-2" x="258.07" y="309.68" width="25.8" height="25.8"/><rect class="cls-2" x="258.07" y="283.87" width="25.8" height="25.81"/><rect class="cls-2" x="258.07" y="258.06" width="25.8" height="25.81"/><rect class="cls-2" x="258.07" y="232.26" width="25.8" height="25.8"/><rect class="cls-2" x="258.07" y="206.45" width="25.8" height="25.81"/><rect class="cls-2" x="258.07" y="180.65" width="25.8" height="25.8"/><rect class="cls-2" x="232.26" y="619.35" width="25.81" height="25.81"/><rect class="cls-2" x="232.26" y="593.55" width="25.81" height="25.8"/><rect class="cls-2" x="232.26" y="567.74" width="25.81" height="25.81"/><rect class="cls-2" x="232.26" y="541.94" width="25.81" height="25.8"/><rect class="cls-2" x="232.26" y="516.13" width="25.81" height="25.81"/><rect class="cls-2" x="232.26" y="490.32" width="25.81" height="25.81"/><rect class="cls-2" x="232.26" y="438.71" width="25.81" height="25.81"/><rect class="cls-2" x="232.26" y="412.9" width="25.81" height="25.81"/><rect class="cls-2" x="232.26" y="387.1" width="25.81" height="25.8"/><rect class="cls-2" x="232.26" y="361.29" width="25.81" height="25.81"/><rect class="cls-2" x="232.26" y="335.48" width="25.81" height="25.81"/><rect class="cls-2" x="232.26" y="309.68" width="25.81" height="25.8"/><rect class="cls-2" x="232.26" y="283.87" width="25.81" height="25.81"/><rect class="cls-2" x="232.26" y="258.06" width="25.81" height="25.81"/><rect class="cls-2" x="232.26" y="232.26" width="25.81" height="25.8"/><rect class="cls-2" x="232.26" y="206.45" width="25.81" height="25.81"/><rect class="cls-2" x="206.45" y="593.55" width="25.81" height="25.8"/><rect class="cls-2" x="206.45" y="567.74" width="25.81" height="25.81"/><rect class="cls-2" x="206.45" y="541.94" width="25.81" height="25.8"/><rect class="cls-2" x="206.45" y="516.13" width="25.81" height="25.81"/><rect class="cls-2" x="180.65" y="593.55" width="25.8" height="25.8"/><rect class="cls-2" x="180.65" y="567.74" width="25.8" height="25.81"/><rect class="cls-2" x="180.65" y="541.94" width="25.8" height="25.8"/><rect class="cls-2" x="180.65" y="516.13" width="25.8" height="25.81"/><rect class="cls-2" x="180.65" y="490.32" width="25.8" height="25.81"/><rect class="cls-2" x="180.65" y="464.52" width="25.8" height="25.8"/><rect class="cls-2" x="180.65" y="438.71" width="25.8" height="25.81"/><rect class="cls-2" x="180.65" y="412.9" width="25.8" height="25.81"/><rect class="cls-2" x="180.65" y="387.1" width="25.8" height="25.8"/><rect class="cls-2" x="180.65" y="361.29" width="25.8" height="25.81"/><rect class="cls-2" x="180.65" y="335.48" width="25.8" height="25.81"/><rect class="cls-2" x="180.65" y="309.68" width="25.8" height="25.8"/><rect class="cls-2" x="180.65" y="283.87" width="25.8" height="25.81"/><rect class="cls-2" x="180.65" y="258.06" width="25.8" height="25.81"/><rect class="cls-2" x="180.65" y="232.26" width="25.8" height="25.8"/><rect class="cls-2" x="180.65" y="206.45" width="25.8" height="25.81"/><rect class="cls-2" x="180.65" y="180.65" width="25.8" height="25.8"/><rect class="cls-2" x="180.65" y="154.84" width="25.8" height="25.81"/><rect class="cls-2" x="180.65" y="129.03" width="25.8" height="25.81"/><rect class="cls-2" x="180.65" y="103.23" width="25.8" height="25.8"/><rect class="cls-2" x="180.65" y="77.42" width="25.8" height="25.81"/><rect class="cls-2" x="180.65" y="51.61" width="25.8" height="25.81"/><rect class="cls-2" x="154.84" y="567.74" width="25.81" height="25.81"/><rect class="cls-2" x="154.84" y="541.94" width="25.81" height="25.8"/><rect class="cls-2" x="154.84" y="516.13" width="25.81" height="25.81"/><rect class="cls-2" x="154.84" y="490.32" width="25.81" height="25.81"/><rect class="cls-2" x="154.84" y="464.52" width="25.81" height="25.8"/><rect class="cls-2" x="154.84" y="438.71" width="25.81" height="25.81"/><rect class="cls-2" x="154.84" y="412.9" width="25.81" height="25.81"/><rect class="cls-2" x="154.84" y="387.1" width="25.81" height="25.8"/><rect class="cls-2" x="154.84" y="361.29" width="25.81" height="25.81"/><rect class="cls-2" x="154.84" y="335.48" width="25.81" height="25.81"/><rect class="cls-2" x="154.84" y="309.68" width="25.81" height="25.8"/><rect class="cls-2" x="154.84" y="283.87" width="25.81" height="25.81"/><rect class="cls-2" x="154.84" y="258.06" width="25.81" height="25.81"/><rect class="cls-2" x="154.84" y="232.26" width="25.81" height="25.8"/><rect class="cls-2" x="154.84" y="206.45" width="25.81" height="25.81"/><rect class="cls-2" x="154.84" y="180.65" width="25.81" height="25.8"/><rect class="cls-2" x="154.84" y="154.84" width="25.81" height="25.81"/><rect class="cls-2" x="154.84" y="129.03" width="25.81" height="25.81"/><rect class="cls-2" x="154.84" y="103.23" width="25.81" height="25.8"/><rect class="cls-2" x="154.84" y="77.42" width="25.81" height="25.81"/><rect class="cls-2" x="129.03" y="129.03" width="25.81" height="25.81"/><rect class="cls-2" x="129.03" y="103.23" width="25.81" height="25.8"/><rect class="cls-2" x="129.03" y="77.42" width="25.81" height="25.81"/><rect class="cls-2" x="103.23" y="154.84" width="25.8" height="25.81"/><rect class="cls-2" x="103.23" y="129.03" width="25.8" height="25.81"/><rect class="cls-2" x="103.23" y="103.23" width="25.8" height="25.8"/><rect class="cls-2" x="77.42" y="154.84" width="25.81" height="25.81"/><rect class="cls-2" x="77.42" y="129.03" width="25.81" height="25.81"/><rect class="cls-2" x="77.42" y="103.23" width="25.81" height="25.8"/><rect class="cls-2" x="51.61" y="283.87" width="25.81" height="25.81"/><rect class="cls-2" x="51.61" y="180.65" width="25.81" height="25.8"/><rect class="cls-2" x="51.61" y="154.84" width="25.81" height="25.81"/><rect class="cls-2" x="51.61" y="129.03" width="25.81" height="25.81"/><rect class="cls-2" x="25.81" y="283.87" width="25.8" height="25.81"/><rect class="cls-2" x="25.81" y="258.06" width="25.8" height="25.81"/><rect class="cls-2" x="25.81" y="206.45" width="25.8" height="25.81"/><rect class="cls-2" x="25.81" y="180.65" width="25.8" height="25.8"/><rect class="cls-2" x="25.81" y="154.84" width="25.8" height="25.81"/><rect class="cls-2" x="25.81" y="129.03" width="25.8" height="25.81"/><rect class="cls-2" y="258.06" width="25.81" height="25.81"/><rect class="cls-2" y="232.26" width="25.81" height="25.8"/><rect class="cls-2" y="206.45" width="25.81" height="25.81"/><rect class="cls-2" y="180.65" width="25.81" height="25.8"/><rect class="cls-2" y="154.84" width="25.81" height="25.81"/></svg>